# xmcd
#
# Track frame offsets:
#	150
#	13570
#	25632
#	35730
#	46887
#	59014
#	71107
#	84672
#	97612
#	108532
#	119837
#	133010
#	145530
#	158790
#	172452
#	184082
#	198580
#	209895
#	221075
#	244350
#	260942
#	280827
#	297192
#	316637
#
# Disc length: 4523 seconds
#
# Revision: 1
# Processed by: cddbd v1.5.2PL0 Copyright (c) Steve Scherf et al.
# Submitted via: audiograbber 1.83.01
#
DISCID=7e11a918
DTITLE=Sister Rosetta Tharpe - SISTER ROSETTA THARPE - From Blues To Gospel
DYEAR=1900
DGENRE=Blues
TTITLE0=My Man And I
TTITLE1=This Train
TTITLE2=Sit Down
TTITLE3=Trouble In Mind
TTITLE4=Shout, Sister Shout
TTITLE5=Rock Me
TTITLE6=Nobody's Fault But Mine
TTITLE7=I Want A Tall Skinny Papa
TTITLE8=God Don't Like It
TTITLE9=What Is The Soul Of Man ?
TTITLE10=Singing In My Soul
TTITLE11=Strange Things Happening Everyday
TTITLE12=Two Little Fishes And Five Loaves Of Bread
TTITLE13=Jonah
TTITLE14=Didn't It Rain
TTITLE15=The Natural Facts
TTITLE16=Down By The Riverside
TTITLE17=Up Above My Head I Hear Music In The Air
TTITLE18=Precious Memories
TTITLE19=Come By Here
TTITLE20=Ain't No Room In The Church For Liars
TTITLE21=Last Mile Of The Way
TTITLE22=Peace In The Valley
TTITLE23=Precious Lord
EXTD=
EXTT0=
EXTT1=
EXTT2=
EXTT3=
EXTT4=
EXTT5=
EXTT6=
EXTT7=
EXTT8=
EXTT9=
EXTT10=
EXTT11=
EXTT12=
EXTT13=
EXTT14=
EXTT15=
EXTT16=
EXTT17=
EXTT18=
EXTT19=
EXTT20=
EXTT21=
EXTT22=
EXTT23=
PLAYORDER=
